<?xml version="1.0" encoding="utf-8"?>
<svg xmlns="http://www.w3.org/2000/svg" viewBox="0 1.68 56.65 56.64">
  <path fill="#B10A32" fill-rule="evenodd" clip-rule="evenodd" d="M31.637,35.457l-10.148-0.003c0,0-0.307-0.034-0.462-0.303c-0.152-0.263-0.112-0.403-0.112-0.403v-9.459c0,0-0.012-0.336,0.168-0.537c0.173-0.193,0.491-0.202,0.491-0.202h13.371c0,0,0.214-0.033,0.46,0.104c0.213,0.115,0.33,0.559,0.33,0.559v9.707c0,0-0.117,0.27-0.234,0.365c-0.105,0.09-0.325,0.166-0.325,0.166L31.637,35.457z M31.559,18.466V8.002C42.305,9.566,50.56,18.818,50.56,29.997c0,11.178-8.236,20.443-18.981,22.012l-0.018-10.536h4.17c3.481,0,6.038-2.609,6.038-6.089V24.481c0-3.479-2.772-6.02-6.253-6.02L31.559,18.466z M14.756,24.481c0-3.479,2.117-6.037,5.595-6.037l4.633-0.014V8.027C14.292,9.64,6.091,18.856,6.091,29.997c0,11.143,8.202,20.383,18.893,21.994l-0.017-10.442l-3.875-0.003c-3.482,0-6.336-2.683-6.336-6.162V24.481z M0,29.997C0,14.358,12.683,1.68,28.325,1.68c15.644,0,28.324,12.679,28.324,28.317c0,15.646-12.681,28.323-28.324,28.323C12.683,58.32,0,45.644,0,29.997"/>
</svg>
