<?xml version="1.0" encoding="UTF-8"?>
<svg xmlns="http://www.w3.org/2000/svg" viewBox="322.27 190.84 59.98 59.98">
  <path fill="#ff0000" fill-rule="evenodd" d="m 58.3125,38.84375 0.34375,-1.5 -6.723932,0 0.59375,1.5 5.786432,0 z m 0.625,-2.6875 0.3125,-1.5 -8.40625,0 0.59375,1.5 7.5,0 z M 28.875,0.0625 c -9.131149,0.23280313 -18.030196,4.599881 -23.71875,12.625 -9.5807263,13.515987 -6.390992,32.263025 7.125,41.84375 l 0.03125,0 c 13.515995,9.54911 32.211082,6.344841 41.78125,-7.15625 1.577847,-2.225945 2.791493,-4.586918 3.6875,-7.03125 l -4.683129,0 0.745879,1.812249 -6.00025,9.281501 -35.6875,0 -6.3125,-9 15.59375,-39 8.71875,20.71875 8.09375,-21 7.434909,18.59375 12.752591,0 C 56.625118,15.432145 52.747959,9.659055 46.96875,5.5625 41.47788,1.6703306 35.122628,-0.09678635 28.875,0.0625 z m 17.425356,23.1875 0.59375,1.5 12.230894,0 c -0.09027,-0.503727 -0.196694,-1.001354 -0.3125,-1.5 l -12.512144,0 z m 1.066871,2.6875 0.59375,1.5 11.539023,0 c -0.04391,-0.498574 -0.08764,-1.004484 -0.15625,-1.5 l -11.976523,0 z m 1.178758,3 0.625,1.5 10.391515,0 0,-1.5 -11.016515,0 z m 1.110265,2.71875 0.59375,1.5 9.1875,0 c 0.05201,-0.501998 0.09843,-0.997272 0.125,-1.5 l -9.90625,0 z" transform="translate(322.63881,190.78506)"/>
  <path fill="#ff0000" fill-rule="evenodd" d="m 341.38881,212.22256 8.40625,20.71875 8.40625,-20.71875 8.6875,21 -33.90625,0 8.40625,-21 z"/>
</svg>
