<?xml version="1.0" encoding="utf-8"?>
<svg xmlns="http://www.w3.org/2000/svg" viewBox="0 -8.5 104 117.3">
  <path fill="#2D64AA" d="M91.6,42.6L60.3,11.3c-6.5-6.5-14.3-6.1-17-5.6C18.7,9.8,0,31.1,0,56.9c0,28.7,23.2,51.9,51.8,51.9c27.9,0,50.7-22.3,51.7-50c0-0.3-0.1-1.3-0.8-1.7c-0.8-0.5-2.5-0.3-2.5-0.3h-20c0,0-1.9,0-2.5,0.3c-0.4,0.2-0.9,0.6-0.9,0.6L52.4,82c-0.4,0.4-1,0.4-1.4,0L26.4,57.4c-0.4-0.4-0.4-1,0-1.4L51,31.4c0.4-0.4,1-0.4,1.4,0L74.9,54c0,0,1.2,1.1,2.3,1.3c1,0.3,2.5-0.8,2.5-0.8L91.6,42.6"/>
  <path fill="#2D64AA" fill-rule="evenodd" clip-rule="evenodd" d="M103,26.5L86.2,9.8C67.5-8.3,45.9,4.2,45.9,4.2s9.2-4.9,20.9,7.5l27.7,27.9l8.2-8.1c0,0,1-1.2,1.2-2.4C104.1,28,103,26.5,103,26.5"/>
</svg>
